<?xml version="1.0" encoding="iso-8859-1"?>
<!-- Generator: Adobe Illustrator 20.1.0, SVG Export Plug-In . SVG Version: 6.00 Build 0)  -->
<svg version="1.1" id="Folder" xmlns="http://www.w3.org/2000/svg" xmlns:xlink="http://www.w3.org/1999/xlink" x="0px" y="0px"
	 width="19.5px" height="16.5px" viewBox="0 0 26 22" style="enable-background:new 0 0 26 22;" xml:space="preserve">
<path id="Folder_1_" style="fill:#666666;" d="M20,5h-6.4c0,0-0.7-0.8-1.8-2c-0.5-0.6-1-1-1.8-1H5C3.9,2,3,2.9,3,4v13
	c0,1.1,0.9,2,2,2h15c1.1,0,2-0.9,2-2V7C22,5.9,21.1,5,20,5z M4,4c0-0.6,0.4-1,1-1h4.8c0.7,0,0.8,0.2,1.2,0.5C11.5,4.1,12.3,5,12.3,5
	H4V4z M21,17c0,0.6-0.4,1-1,1H5c-0.6,0-1-0.4-1-1L4,6h16c0.6,0,1,0.4,1,1V17z"/>
</svg>
